<svg xmlns="http://www.w3.org/2000/svg" viewBox="0 0 360 64" width="360" height="64">
  <defs>
    <linearGradient id="mc-base" gradientUnits="userSpaceOnUse" x1="50" x2="1150" y1="600" y2="600">
      <stop offset="0.03" stop-color="#97F0F7"/>
      <stop offset="0.45" stop-color="#4CC1E9"/>
      <stop offset="1"    stop-color="#1E6DBB"/>
    </linearGradient>
    <linearGradient id="mc-left" gradientUnits="userSpaceOnUse" x1="50" x2="600" y1="600" y2="600">
      <stop offset="0.03" stop-color="#4CC1E9"/>
      <stop offset="1"    stop-color="#2180D6"/>
    </linearGradient>
    <linearGradient id="mc-right" gradientUnits="userSpaceOnUse" x1="600" x2="1150" y1="600" y2="600">
      <stop offset="0.03" stop-color="#2180D6"/>
      <stop offset="1"    stop-color="#1C549F"/>
    </linearGradient>
  </defs>
  <!-- Crystal icon — 38px tall, vertically centered -->
  <g transform="translate(6, 10.2) scale(0.0363)">
    <path d="M600 76.919 L50 476.517 L260.081 1123.081 L939.919 1123.081 L1150 476.517 Z" fill="url(#mc-base)"/>
    <path d="M600 76.919 L50 476.517 L260.081 1123.081 Z" fill="url(#mc-left)"/>
    <path d="M600 76.919 L939.919 1123.081 L1150 476.517 Z" fill="url(#mc-right)"/>
  </g>
  <!-- Wordmark — Audiowide paths, on light backgrounds (#1560A8) -->
  <g transform="translate(62, 42)" fill="#1560A8">
    <path d="M20.44-14.86L20.44 0L17.50 0L17.50-9.59L12.32-0.48Q12.13-0.13 11.79 0.04Q11.44 0.22 11.05 0.22L11.05 0.22Q10.67 0.22 10.34 0.04Q10.01-0.13 9.82-0.48L9.82-0.48L4.62-9.59L4.62 0L1.70 0L1.70-14.86Q1.70-15.36 1.99-15.76Q2.29-16.15 2.77-16.28L2.77-16.28Q3.01-16.34 3.25-16.32Q3.48-16.31 3.70-16.22Q3.92-16.14 4.10-15.99Q4.28-15.83 4.40-15.62L4.40-15.62L11.05-4.07L17.70-15.62Q17.96-16.05 18.41-16.23Q18.87-16.41 19.36-16.28L19.36-16.28Q19.83-16.15 20.14-15.76Q20.44-15.36 20.44-14.86L20.44-14.86Z M39.87-9.52L39.87-6.58L30.65-6.58L30.65-9.52L39.87-9.52ZM41.19-2.92L41.19 0L30.65 0Q30.05 0 29.33-0.21Q28.61-0.43 28.00-0.92Q27.38-1.40 26.97-2.18Q26.56-2.96 26.56-4.10L26.56-4.10L26.56-14.63Q26.56-14.94 26.68-15.21Q26.79-15.48 26.98-15.68Q27.18-15.88 27.45-15.99Q27.72-16.10 28.03-16.10L28.03-16.10L41.19-16.10L41.19-13.18L29.48-13.18L29.48-4.10Q29.48-3.53 29.79-3.22Q30.09-2.92 30.67-2.92L30.67-2.92L41.19-2.92Z M65.55-14.86L65.55 0L62.61 0L62.61-9.59L57.43-0.48Q57.24-0.13 56.90 0.04Q56.55 0.22 56.16 0.22L56.16 0.22Q55.78 0.22 55.45 0.04Q55.12-0.13 54.92-0.48L54.92-0.48L49.72-9.59L49.72 0L46.80 0L46.80-14.86Q46.80-15.36 47.10-15.76Q47.40-16.15 47.88-16.28L47.88-16.28Q48.12-16.34 48.35-16.32Q48.59-16.31 48.81-16.22Q49.03-16.14 49.21-15.99Q49.39-15.83 49.51-15.62L49.51-15.62L56.16-4.07L62.81-15.62Q63.07-16.05 63.52-16.23Q63.98-16.41 64.47-16.28L64.47-16.28Q64.94-16.15 65.25-15.76Q65.55-15.36 65.55-14.86L65.55-14.86Z M88.64-9.59L88.64-6.51Q88.64-5.04 88.14-3.81Q87.63-2.57 86.73-1.67Q85.83-0.77 84.60-0.28Q83.37 0.22 81.93 0.22L81.93 0.22L77.97 0.22Q76.52 0.22 75.29-0.28Q74.05-0.77 73.15-1.67Q72.26-2.57 71.75-3.81Q71.23-5.04 71.23-6.51L71.23-6.51L71.23-9.59Q71.23-11.05 71.75-12.29Q72.26-13.53 73.15-14.43Q74.05-15.32 75.29-15.82Q76.52-16.33 77.97-16.33L77.97-16.33L81.93-16.33Q83.37-16.33 84.60-15.82Q85.83-15.32 86.73-14.43Q87.63-13.53 88.14-12.29Q88.64-11.05 88.64-9.59L88.64-9.59ZM85.72-6.51L85.72-9.59Q85.72-10.46 85.45-11.16Q85.17-11.86 84.67-12.36Q84.17-12.86 83.47-13.13Q82.77-13.41 81.93-13.41L81.93-13.41L77.97-13.41Q77.12-13.41 76.42-13.13Q75.72-12.86 75.21-12.36Q74.70-11.86 74.43-11.16Q74.15-10.46 74.15-9.59L74.15-9.59L74.15-6.51Q74.15-5.65 74.43-4.95Q74.70-4.25 75.21-3.75Q75.72-3.25 76.42-2.97Q77.12-2.70 77.97-2.70L77.97-2.70L81.90-2.70Q82.76-2.70 83.46-2.97Q84.16-3.25 84.67-3.75Q85.17-4.25 85.45-4.95Q85.72-5.65 85.72-6.51L85.72-6.51Z M110.42-12.56L110.42-10.69Q110.42-9.69 110.17-8.91Q109.93-8.12 109.51-7.52Q109.08-6.92 108.53-6.49Q107.98-6.06 107.38-5.79Q106.78-5.51 106.17-5.39Q105.56-5.27 105.02-5.27L105.02-5.27L111.12 0L106.60 0L100.52-5.27L98.42-5.27L98.42-8.19L105.02-8.19Q105.57-8.23 106.02-8.42Q106.48-8.60 106.81-8.92Q107.14-9.23 107.32-9.68Q107.50-10.12 107.50-10.69L107.50-10.69L107.50-12.53Q107.50-12.78 107.44-12.91Q107.38-13.04 107.28-13.10Q107.19-13.16 107.08-13.17Q106.97-13.18 106.88-13.18L106.88-13.18L97.25-13.18L97.25 0L94.33 0L94.33-14.63Q94.33-14.94 94.44-15.21Q94.55-15.48 94.75-15.68Q94.95-15.88 95.22-15.99Q95.48-16.10 95.80-16.10L95.80-16.10L106.88-16.10Q107.86-16.10 108.53-15.75Q109.21-15.40 109.63-14.86Q110.05-14.33 110.24-13.71Q110.42-13.09 110.42-12.56L110.42-12.56Z M131.49-16.10L131.49-10.71Q131.49-9.71 131.24-8.93Q130.99-8.14 130.57-7.54Q130.16-6.94 129.60-6.51Q129.04-6.09 128.45-5.81Q127.85-5.54 127.24-5.41Q126.63-5.29 126.09-5.29L126.09-5.29L124.91-5.29L124.91 0L121.97 0L121.97-5.29L120.80-5.29Q120.26-5.29 119.65-5.41Q119.04-5.54 118.44-5.81Q117.84-6.09 117.29-6.51Q116.74-6.94 116.32-7.54Q115.89-8.14 115.64-8.93Q115.39-9.73 115.39-10.71L115.39-10.71L115.39-16.10L118.31-16.10L118.31-10.71Q118.31-10.14 118.49-9.69Q118.67-9.23 118.99-8.91Q119.32-8.58 119.79-8.41Q120.25-8.23 120.82-8.23L120.82-8.23L126.09-8.23Q126.51-8.30 126.94-8.41Q127.38-8.51 127.74-8.77Q128.10-9.03 128.34-9.49Q128.57-9.95 128.57-10.71L128.57-10.71L128.57-16.10L131.49-16.10Z M161.62-2.92L161.62 0L151.09 0Q150.68 0 150.22-0.10Q149.75-0.19 149.30-0.39Q148.84-0.60 148.42-0.92Q148.01-1.24 147.69-1.69Q147.37-2.15 147.18-2.75Q146.99-3.35 146.99-4.10L146.99-4.10L146.99-12.01Q146.99-12.41 147.08-12.88Q147.18-13.34 147.38-13.80Q147.58-14.25 147.91-14.67Q148.23-15.08 148.69-15.40Q149.14-15.72 149.74-15.91Q150.33-16.10 151.09-16.10L151.09-16.10L161.62-16.10L161.62-13.18L151.09-13.18Q150.51-13.18 150.21-12.88Q149.91-12.58 149.91-11.98L149.91-11.98L149.91-4.10Q149.91-3.54 150.22-3.23Q150.52-2.92 151.09-2.92L151.09-2.92L161.62-2.92Z M183.28-12.56L183.28-10.69Q183.28-9.69 183.03-8.91Q182.78-8.12 182.36-7.52Q181.94-6.92 181.39-6.49Q180.84-6.06 180.24-5.79Q179.64-5.51 179.03-5.39Q178.41-5.27 177.87-5.27L177.87-5.27L183.97 0L179.46 0L173.37-5.27L171.27-5.27L171.27-8.19L177.87-8.19Q178.42-8.23 178.88-8.42Q179.33-8.60 179.67-8.92Q180.00-9.23 180.18-9.68Q180.36-10.12 180.36-10.69L180.36-10.69L180.36-12.53Q180.36-12.78 180.29-12.91Q180.23-13.04 180.14-13.10Q180.04-13.16 179.94-13.17Q179.83-13.18 179.74-13.18L179.74-13.18L170.10-13.18L170.10 0L167.18 0L167.18-14.63Q167.18-14.94 167.30-15.21Q167.41-15.48 167.60-15.68Q167.80-15.88 168.07-15.99Q168.34-16.10 168.65-16.10L168.65-16.10L179.74-16.10Q180.72-16.10 181.39-15.75Q182.06-15.40 182.48-14.86Q182.91-14.33 183.09-13.71Q183.28-13.09 183.28-12.56L183.28-12.56Z M204.35-16.10L204.35-10.71Q204.35-9.71 204.10-8.93Q203.84-8.14 203.43-7.54Q203.01-6.94 202.46-6.51Q201.90-6.09 201.30-5.81Q200.71-5.54 200.10-5.41Q199.49-5.29 198.95-5.29L198.95-5.29L197.77-5.29L197.77 0L194.83 0L194.83-5.29L193.66-5.29Q193.12-5.29 192.51-5.41Q191.89-5.54 191.29-5.81Q190.69-6.09 190.14-6.51Q189.59-6.94 189.17-7.54Q188.75-8.14 188.50-8.93Q188.24-9.73 188.24-10.71L188.24-10.71L188.24-16.10L191.16-16.10L191.16-10.71Q191.16-10.14 191.34-9.69Q191.52-9.23 191.85-8.91Q192.17-8.58 192.64-8.41Q193.11-8.23 193.68-8.23L193.68-8.23L198.95-8.23Q199.36-8.30 199.80-8.41Q200.24-8.51 200.60-8.77Q200.96-9.03 201.19-9.49Q201.43-9.95 201.43-10.71L201.43-10.71L201.43-16.10L204.35-16.10Z M225.25-4.74L225.25-4.74Q225.25-3.87 225.03-3.18Q224.81-2.49 224.45-1.97Q224.10-1.44 223.61-1.07Q223.13-0.70 222.61-0.46Q222.10-0.22 221.56-0.11Q221.03 0 220.56 0L220.56 0L209.29 0L209.29-2.92L220.56-2.92Q221.40-2.92 221.87-3.41Q222.33-3.91 222.33-4.74L222.33-4.74Q222.33-5.14 222.21-5.48Q222.08-5.82 221.85-6.06Q221.62-6.31 221.29-6.45Q220.96-6.58 220.56-6.58L220.56-6.58L213.84-6.58Q213.13-6.58 212.31-6.83Q211.49-7.09 210.79-7.65Q210.09-8.21 209.62-9.12Q209.16-10.03 209.16-11.34L209.16-11.34Q209.16-12.66 209.62-13.56Q210.09-14.46 210.79-15.03Q211.49-15.60 212.31-15.85Q213.13-16.10 213.84-16.10L213.84-16.10L223.78-16.10L223.78-13.18L213.84-13.18Q213.01-13.18 212.54-12.68Q212.08-12.17 212.08-11.34L212.08-11.34Q212.08-10.50 212.54-10.01Q213.01-9.52 213.84-9.52L213.84-9.52L220.56-9.52L220.58-9.52Q221.05-9.51 221.58-9.39Q222.11-9.28 222.63-9.03Q223.15-8.78 223.62-8.41Q224.10-8.03 224.46-7.50Q224.83-6.97 225.04-6.29Q225.25-5.60 225.25-4.74Z M245.03-16.10L245.03-13.18L238.60-13.18L238.60 0L235.68 0L235.68-13.18L229.23-13.18L229.23-16.10L245.03-16.10Z M265.78-14.63L265.78 0L262.86 0L262.86-3.95L252.59-3.95L252.59 0L249.67 0L249.67-8.05Q249.67-9.82 250.28-11.30Q250.89-12.78 251.97-13.85Q253.04-14.91 254.51-15.51Q255.99-16.10 257.73-16.10L257.73-16.10L264.31-16.10Q264.61-16.10 264.88-15.99Q265.15-15.88 265.35-15.68Q265.55-15.48 265.67-15.21Q265.78-14.94 265.78-14.63L265.78-14.63ZM252.59-8.05L252.59-6.87L262.86-6.87L262.86-13.18L257.73-13.18Q257.59-13.18 257.16-13.15Q256.73-13.11 256.16-12.95Q255.59-12.79 254.96-12.47Q254.33-12.14 253.81-11.57Q253.28-10.99 252.94-10.14Q252.59-9.28 252.59-8.05L252.59-8.05Z M286.76-2.92L286.76 0L273.44 0Q273.13 0 272.86-0.11Q272.59-0.22 272.39-0.42Q272.19-0.62 272.08-0.89Q271.97-1.16 271.97-1.47L271.97-1.47L271.97-16.10L274.89-16.10L274.89-2.92L286.76-2.92Z"/>
  </g>
</svg>
