<svg xmlns="http://www.w3.org/2000/svg" viewBox="0 0 280 48" width="280" height="48">
  <defs>
    <linearGradient id="mc-base" gradientUnits="userSpaceOnUse" x1="50" x2="1150" y1="600" y2="600">
      <stop offset="0.03" stop-color="#97F0F7"/>
      <stop offset="0.45" stop-color="#4CC1E9"/>
      <stop offset="1"    stop-color="#1E6DBB"/>
    </linearGradient>
    <linearGradient id="mc-left" gradientUnits="userSpaceOnUse" x1="50" x2="600" y1="600" y2="600">
      <stop offset="0.03" stop-color="#4CC1E9"/>
      <stop offset="1"    stop-color="#2180D6"/>
    </linearGradient>
    <linearGradient id="mc-right" gradientUnits="userSpaceOnUse" x1="600" x2="1150" y1="600" y2="600">
      <stop offset="0.03" stop-color="#2180D6"/>
      <stop offset="1"    stop-color="#1C549F"/>
    </linearGradient>
    <filter id="glow">
      <feDropShadow dx="0" dy="0" stdDeviation="3" flood-color="rgba(33,128,214,0.6)"/>
    </filter>
  </defs>
  <g transform="translate(4, 6.2) scale(0.0287)" filter="url(#glow)">
    <path d="M600 76.919 L50 476.517 L260.081 1123.081 L939.919 1123.081 L1150 476.517 Z" fill="url(#mc-base)"/>
    <path d="M600 76.919 L50 476.517 L260.081 1123.081 Z" fill="url(#mc-left)"/>
    <path d="M600 76.919 L939.919 1123.081 L1150 476.517 Z" fill="url(#mc-right)"/>
  </g>
  <g transform="translate(48, 32)" fill="#2180D6" filter="url(#glow)">
    <path d="M16.00-11.63L16.00 0L13.69 0L13.69-7.51L9.64-0.38Q9.49-0.11 9.22 0.04Q8.96 0.18 8.65 0.18L8.65 0.18Q8.35 0.18 8.09 0.04Q7.83-0.11 7.68-0.38L7.68-0.38L3.61-7.51L3.61 0L1.33 0L1.33-11.63Q1.33-12.02 1.56-12.33Q1.79-12.64 2.17-12.74L2.17-12.74Q2.36-12.79 2.54-12.77Q2.72-12.76 2.90-12.70Q3.07-12.63 3.21-12.51Q3.35-12.39 3.45-12.23L3.45-12.23L8.65-3.18L13.85-12.23Q14.05-12.56 14.41-12.70Q14.77-12.84 15.15-12.74L15.15-12.74Q15.52-12.64 15.76-12.33Q16.00-12.02 16.00-11.63L16.00-11.63Z M31.21-7.45L31.21-5.15L24.00-5.15L24.00-7.45L31.21-7.45ZM32.24-2.29L32.24 0L24.00 0Q23.52 0 22.96-0.17Q22.40-0.33 21.92-0.72Q21.44-1.10 21.12-1.71Q20.80-2.32 20.80-3.21L20.80-3.21L20.80-11.45Q20.80-11.69 20.89-11.90Q20.97-12.11 21.13-12.27Q21.28-12.43 21.49-12.52Q21.70-12.60 21.95-12.60L21.95-12.60L32.24-12.60L32.24-10.32L23.08-10.32L23.08-3.21Q23.08-2.76 23.32-2.52Q23.56-2.29 24.01-2.29L24.01-2.29L32.24-2.29Z M51.32-11.63L51.32 0L49.01 0L49.01-7.51L44.96-0.38Q44.81-0.11 44.54 0.04Q44.28 0.18 43.97 0.18L43.97 0.18Q43.67 0.18 43.41 0.04Q43.15-0.11 43.00-0.38L43.00-0.38L38.93-7.51L38.93 0L36.65 0L36.65-11.63Q36.65-12.02 36.88-12.33Q37.11-12.64 37.49-12.74L37.49-12.74Q37.68-12.79 37.86-12.77Q38.04-12.76 38.22-12.70Q38.39-12.63 38.53-12.51Q38.67-12.39 38.77-12.23L38.77-12.23L43.97-3.18L49.17-12.23Q49.37-12.56 49.73-12.70Q50.09-12.84 50.47-12.74L50.47-12.74Q50.84-12.64 51.08-12.33Q51.32-12.02 51.32-11.63L51.32-11.63Z M69.40-7.51L69.40-5.10Q69.40-3.95 69.00-2.98Q68.61-2.01 67.90-1.31Q67.20-0.61 66.24-0.22Q65.28 0.18 64.14 0.18L64.14 0.18L61.05 0.18Q59.91 0.18 58.95-0.22Q57.98-0.61 57.28-1.31Q56.57-2.01 56.17-2.98Q55.77-3.95 55.77-5.10L55.77-5.10L55.77-7.51Q55.77-8.65 56.17-9.62Q56.57-10.59 57.28-11.29Q57.98-11.99 58.95-12.38Q59.91-12.78 61.05-12.78L61.05-12.78L64.14-12.78Q65.28-12.78 66.24-12.38Q67.20-11.99 67.90-11.29Q68.61-10.59 69.00-9.62Q69.40-8.65 69.40-7.51L69.40-7.51ZM67.11-5.10L67.11-7.51Q67.11-8.18 66.90-8.73Q66.68-9.28 66.29-9.67Q65.90-10.06 65.35-10.28Q64.80-10.49 64.14-10.49L64.14-10.49L61.05-10.49Q60.38-10.49 59.83-10.28Q59.28-10.06 58.89-9.67Q58.49-9.28 58.28-8.73Q58.06-8.18 58.06-7.51L58.06-7.51L58.06-5.10Q58.06-4.42 58.28-3.87Q58.49-3.32 58.89-2.93Q59.28-2.54 59.83-2.32Q60.38-2.11 61.05-2.11L61.05-2.11L64.12-2.11Q64.79-2.11 65.34-2.32Q65.89-2.54 66.29-2.93Q66.68-3.32 66.90-3.87Q67.11-4.42 67.11-5.10L67.11-5.10Z M86.45-9.83L86.45-8.37Q86.45-7.58 86.26-6.97Q86.06-6.35 85.74-5.88Q85.41-5.41 84.97-5.08Q84.54-4.75 84.07-4.53Q83.60-4.32 83.12-4.22Q82.65-4.12 82.22-4.12L82.22-4.12L87.00 0L83.46 0L78.70-4.12L77.06-4.12L77.06-6.41L82.22-6.41Q82.65-6.44 83.01-6.59Q83.37-6.73 83.63-6.98Q83.88-7.22 84.03-7.57Q84.17-7.92 84.17-8.37L84.17-8.37L84.17-9.81Q84.17-10.00 84.12-10.10Q84.07-10.20 83.99-10.25Q83.92-10.30 83.84-10.31Q83.75-10.32 83.68-10.32L83.68-10.32L76.14-10.32L76.14 0L73.86 0L73.86-11.45Q73.86-11.69 73.94-11.90Q74.03-12.11 74.19-12.27Q74.34-12.43 74.55-12.52Q74.76-12.60 75.01-12.60L75.01-12.60L83.68-12.60Q84.45-12.60 84.97-12.33Q85.50-12.05 85.83-11.63Q86.16-11.21 86.31-10.73Q86.45-10.25 86.45-9.83L86.45-9.83Z M102.95-12.60L102.95-8.38Q102.95-7.60 102.75-6.99Q102.56-6.37 102.23-5.90Q101.91-5.43 101.47-5.10Q101.04-4.76 100.57-4.55Q100.10-4.33 99.62-4.24Q99.15-4.14 98.72-4.14L98.72-4.14L97.80-4.14L97.80 0L95.50 0L95.50-4.14L94.58-4.14Q94.16-4.14 93.68-4.24Q93.20-4.33 92.73-4.55Q92.26-4.76 91.83-5.10Q91.40-5.43 91.07-5.90Q90.74-6.37 90.55-6.99Q90.35-7.61 90.35-8.38L90.35-8.38L90.35-12.60L92.63-12.60L92.63-8.38Q92.63-7.94 92.77-7.58Q92.91-7.22 93.17-6.97Q93.42-6.71 93.79-6.58Q94.15-6.44 94.60-6.44L94.60-6.44L98.72-6.44Q99.05-6.50 99.39-6.58Q99.73-6.66 100.02-6.86Q100.30-7.07 100.48-7.43Q100.67-7.79 100.67-8.38L100.67-8.38L100.67-12.60L102.95-12.60Z M126.55-2.29L126.55 0L118.30 0Q117.99 0 117.62-0.07Q117.26-0.15 116.90-0.31Q116.54-0.47 116.22-0.72Q115.89-0.97 115.64-1.32Q115.39-1.68 115.24-2.15Q115.09-2.62 115.09-3.21L115.09-3.21L115.09-9.40Q115.09-9.71 115.17-10.08Q115.24-10.44 115.40-10.80Q115.56-11.15 115.82-11.48Q116.07-11.80 116.43-12.05Q116.78-12.30 117.25-12.45Q117.71-12.60 118.30-12.60L118.30-12.60L126.55-12.60L126.55-10.32L118.30-10.32Q117.85-10.32 117.62-10.08Q117.38-9.84 117.38-9.38L117.38-9.38L117.38-3.21Q117.38-2.77 117.62-2.53Q117.86-2.29 118.30-2.29L118.30-2.29L126.55-2.29Z M143.50-9.83L143.50-8.37Q143.50-7.58 143.31-6.97Q143.12-6.35 142.79-5.88Q142.46-5.41 142.03-5.08Q141.60-4.75 141.13-4.53Q140.66-4.32 140.18-4.22Q139.70-4.12 139.28-4.12L139.28-4.12L144.05 0L140.52 0L135.75-4.12L134.11-4.12L134.11-6.41L139.28-6.41Q139.71-6.44 140.06-6.59Q140.42-6.73 140.68-6.98Q140.94-7.22 141.08-7.57Q141.22-7.92 141.22-8.37L141.22-8.37L141.22-9.81Q141.22-10.00 141.17-10.10Q141.12-10.20 141.05-10.25Q140.97-10.30 140.89-10.31Q140.81-10.32 140.73-10.32L140.73-10.32L133.19-10.32L133.19 0L130.91 0L130.91-11.45Q130.91-11.69 131.00-11.90Q131.08-12.11 131.24-12.27Q131.39-12.43 131.60-12.52Q131.81-12.60 132.06-12.60L132.06-12.60L140.73-12.60Q141.50-12.60 142.03-12.33Q142.55-12.05 142.88-11.63Q143.21-11.21 143.36-10.73Q143.50-10.25 143.50-9.83L143.50-9.83Z M160.00-12.60L160.00-8.38Q160.00-7.60 159.81-6.99Q159.61-6.37 159.28-5.90Q158.96-5.43 158.52-5.10Q158.09-4.76 157.62-4.55Q157.16-4.33 156.68-4.24Q156.20-4.14 155.78-4.14L155.78-4.14L154.85-4.14L154.85 0L152.55 0L152.55-4.14L151.64-4.14Q151.21-4.14 150.74-4.24Q150.26-4.33 149.79-4.55Q149.32-4.76 148.88-5.10Q148.45-5.43 148.12-5.90Q147.80-6.37 147.60-6.99Q147.40-7.61 147.40-8.38L147.40-8.38L147.40-12.60L149.68-12.60L149.68-8.38Q149.68-7.94 149.83-7.58Q149.97-7.22 150.22-6.97Q150.48-6.71 150.84-6.58Q151.21-6.44 151.65-6.44L151.65-6.44L155.78-6.44Q156.10-6.50 156.44-6.58Q156.79-6.66 157.07-6.86Q157.35-7.07 157.53-7.43Q157.72-7.79 157.72-8.38L157.72-8.38L157.72-12.60L160.00-12.60Z M176.37-3.71L176.37-3.71Q176.37-3.03 176.20-2.49Q176.03-1.95 175.75-1.54Q175.47-1.13 175.09-0.83Q174.71-0.54 174.31-0.36Q173.90-0.18 173.48-0.09Q173.07 0 172.70 0L172.70 0L163.88 0L163.88-2.29L172.70-2.29Q173.36-2.29 173.72-2.67Q174.09-3.06 174.09-3.71L174.09-3.71Q174.09-4.03 173.99-4.29Q173.89-4.55 173.71-4.75Q173.53-4.94 173.27-5.04Q173.01-5.15 172.70-5.15L172.70-5.15L167.44-5.15Q166.89-5.15 166.25-5.35Q165.60-5.55 165.06-5.99Q164.51-6.42 164.14-7.14Q163.78-7.85 163.78-8.88L163.78-8.88Q163.78-9.91 164.14-10.61Q164.51-11.32 165.06-11.76Q165.60-12.21 166.25-12.41Q166.89-12.60 167.44-12.60L167.44-12.60L175.22-12.60L175.22-10.32L167.44-10.32Q166.79-10.32 166.43-9.92Q166.06-9.53 166.06-8.88L166.06-8.88Q166.06-8.22 166.43-7.84Q166.79-7.45 167.44-7.45L167.44-7.45L172.70-7.45L172.71-7.45Q173.08-7.44 173.50-7.35Q173.91-7.26 174.32-7.07Q174.73-6.87 175.10-6.58Q175.47-6.28 175.75-5.87Q176.04-5.46 176.20-4.92Q176.37-4.39 176.37-3.71Z M191.86-12.60L191.86-10.32L186.82-10.32L186.82 0L184.54 0L184.54-10.32L179.49-10.32L179.49-12.60L191.86-12.60Z M208.11-11.45L208.11 0L205.82 0L205.82-3.09L197.79-3.09L197.79 0L195.50 0L195.50-6.30Q195.50-7.68 195.98-8.84Q196.45-10.00 197.29-10.84Q198.14-11.67 199.29-12.14Q200.44-12.60 201.80-12.60L201.80-12.60L206.95-12.60Q207.19-12.60 207.40-12.52Q207.61-12.43 207.77-12.27Q207.93-12.11 208.02-11.90Q208.11-11.69 208.11-11.45L208.11-11.45ZM197.79-6.30L197.79-5.38L205.82-5.38L205.82-10.32L201.80-10.32Q201.70-10.32 201.36-10.29Q201.02-10.26 200.58-10.13Q200.13-10.01 199.64-9.76Q199.15-9.50 198.74-9.05Q198.32-8.60 198.05-7.93Q197.79-7.26 197.79-6.30L197.79-6.30Z M224.53-2.29L224.53 0L214.11 0Q213.86 0 213.65-0.09Q213.44-0.18 213.29-0.33Q213.14-0.48 213.05-0.69Q212.96-0.91 212.96-1.15L212.96-1.15L212.96-12.60L215.24-12.60L215.24-2.29L224.53-2.29Z"/>
  </g>
</svg>
